# xmcd
#
# Track frame offsets:
#	150
#	17840
#	35320
#	50620
#	68660
#	84867
#	98697
#	115425
#	127577
#	142000
#
# Disc length: 2058 seconds
#
# Revision: 0
# Processed by: cddbd v1.5.2PL0 Copyright (c) Steve Scherf et al.
# Submitted via: EasyCDDAExtractor 11.1.0.1
#
DISCID=7908080a
DTITLE=Various Artist - Nashville Music Express
DYEAR=1900
DGENRE=Country
TTITLE0=Scooter lee - A christmas card
TTITLE1=Jon Casey - Boats planes and trains
TTITLE2=David Crawford - Christmas brings the child out in me
TTITLE3=Jerry Adams - I don't want to hear
TTITLE4=Billy Hoffman - I go down in history
TTITLE5=Bellamy Brothers - Jingle bells
TTITLE6=Bellamy Brothers - Let your love flow
TTITLE7=Scooter Lee - Sexy little christmas thang
TTITLE8=Billy Hoffman - That wouldn't break my heart
TTITLE9=Elvis Wade - The want to
EXTD=
EXTT0=
EXTT1=
EXTT2=
EXTT3=
EXTT4=
EXTT5=
EXTT6=
EXTT7=
EXTT8=
EXTT9=
PLAYORDER=
